<svg width="630" height="498" viewBox="0 0 630 498" fill="none" xmlns="http://www.w3.org/2000/svg">
<path d="M215 282.333H415M315 182.333V382.333M317.09 51.0913L312.91 46.9087C301.38 35.3784 295.613 29.6134 288.887 25.4907C282.92 21.8354 276.417 19.1417 269.617 17.5087C261.943 15.6667 253.79 15.6667 237.484 15.6667H121.667C84.33 15.6667 65.6613 15.6667 51.4007 22.933C38.8563 29.3244 28.6577 39.523 22.2663 52.0674C15 66.328 15 84.9963 15 122.333V375.667C15 413.003 15 431.673 22.2663 445.933C28.6577 458.477 38.8563 468.677 51.4007 475.067C65.6613 482.333 84.3297 482.333 121.667 482.333H508.333C545.67 482.333 564.34 482.333 578.6 475.067C591.143 468.677 601.343 458.477 607.733 445.933C615 431.673 615 413.003 615 375.667V189C615 151.663 615 132.995 607.733 118.734C601.343 106.19 591.143 95.991 578.6 89.5997C564.34 82.3333 545.67 82.3334 508.333 82.3334H392.517C376.21 82.3334 368.057 82.3333 360.383 80.4913C353.583 78.8583 347.08 76.1647 341.113 72.5093C334.387 68.3867 328.62 62.6217 317.09 51.0913Z" stroke="black" stroke-width="30" stroke-linecap="round" stroke-linejoin="round"/>
</svg>
