<svg width="800" height="800" viewBox="0 0 800 800" fill="none" xmlns="http://www.w3.org/2000/svg">
<g clip-path="url(#clip0_50_2)">
<path d="M582.5 168.328C636.616 168.328 637 168.328 637 215.927V564.613C637 619.566 637 631.328 612 631.328V196.427L163.342 196.427C163.342 168.328 192.64 168.328 246.756 168.328H582.5Z" fill="black"/>
<path d="M745.158 0C799.274 0 799.658 3.8147e-06 799.658 47.599V396.285C799.658 451.238 799.658 463 774.658 463V28.099L326 28.099C326 -1.33514e-05 355.299 0 409.415 0H745.158Z" fill="black"/>
<path fill-rule="evenodd" clip-rule="evenodd" d="M373.575 326C425.397 326 467 368.247 467 420.871V705.485C467 758.109 425.397 800.356 373.575 800.356H93.3C41.4783 800.356 -0.125 758.109 -0.125 705.485V420.871C-0.125 368.247 41.4783 326 93.3 326H373.575ZM362 345C409.703 345 448 383.831 448 432.2V693.8C448 742.169 409.703 781 362 781H104C56.2969 781 18 742.169 18 693.8V432.2C18 383.831 56.2969 345 104 345H362Z" fill="black"/>
<path d="M249.978 563L332.604 480.374C337.132 475.846 337.132 468.489 332.604 463.396C328.077 458.868 320.72 458.868 315.626 463.396L233 546.022L150.374 463.396C145.846 458.868 138.489 458.868 133.396 463.396C128.868 467.923 128.868 475.28 133.396 480.374L216.022 563L133.396 645.626C128.868 650.154 128.868 657.511 133.396 662.604C135.659 664.868 139.055 666 141.885 666C144.714 666 148.11 664.868 150.374 662.604L233 579.978L315.626 662.604C317.89 664.868 320.72 666 324.115 666C326.945 666 330.341 664.868 332.604 662.604C337.132 658.077 337.132 650.72 332.604 645.626L249.978 563Z" fill="black"/>
</g>
<defs>
<clipPath id="clip0_50_2">
<rect width="800" height="800" fill="white" transform="matrix(-1 0 0 1 800 0)"/>
</clipPath>
</defs>
</svg>
