<svg width="800" height="800" viewBox="0 0 800 800" fill="none" xmlns="http://www.w3.org/2000/svg">
<path fill-rule="evenodd" clip-rule="evenodd" d="M317.376 336.016H226.624C213.308 335.907 200.493 341.091 190.999 350.429C181.505 359.766 176.11 372.493 176 385.808V574.256C176.246 601.974 198.907 624.25 226.624 624.016H317.376C330.691 624.128 343.507 618.944 353.002 609.606C362.496 600.269 367.891 587.542 368 574.224V385.808C367.891 372.493 362.496 359.766 353.002 350.429C343.507 341.091 330.691 335.907 317.376 336.016Z" stroke="black" stroke-width="36" stroke-linecap="round" stroke-linejoin="round"/>
<path fill-rule="evenodd" clip-rule="evenodd" d="M317.376 144.019H226.624C199.464 143.266 176.819 164.637 176 191.795V224.243C176.819 251.401 199.464 272.773 226.624 272.019H317.376C344.534 272.773 367.181 251.401 368 224.243V191.795C367.181 164.637 344.534 143.266 317.376 144.019Z" stroke="black" stroke-width="36" stroke-linecap="round" stroke-linejoin="round"/>
<path fill-rule="evenodd" clip-rule="evenodd" d="M482.624 432.022H573.344C586.666 432.141 599.488 426.96 608.989 417.622C618.49 408.282 623.891 395.552 624 382.23V193.813C623.891 180.497 618.496 167.77 609.002 158.432C599.507 149.094 586.691 143.91 573.376 144.021H482.624C469.309 143.91 456.493 149.094 446.998 158.432C437.504 167.77 432.109 180.497 432 193.813V382.23C432.109 395.546 437.504 408.272 446.998 417.61C456.493 426.947 469.309 432.131 482.624 432.022Z" stroke="black" stroke-width="36" stroke-linecap="round" stroke-linejoin="round"/>
<path fill-rule="evenodd" clip-rule="evenodd" d="M482.624 624.019H573.344C600.515 624.79 623.181 603.414 624 576.243V543.795C623.181 516.637 600.534 495.267 573.376 496.019H482.624C455.466 495.267 432.819 516.637 432 543.795V576.211C432.8 603.382 455.453 624.771 482.624 624.019Z" stroke="black" stroke-width="36" stroke-linecap="round" stroke-linejoin="round"/>
</svg>
