<svg width="630" height="497" viewBox="0 0 630 497" fill="none" xmlns="http://www.w3.org/2000/svg">
<path d="M15 121.667C15 84.3297 15 65.6613 22.2663 51.4007C28.6577 38.8563 38.8563 28.6577 51.4007 22.2663C65.6613 15 84.33 15 121.667 15H237.484C253.79 15 261.943 15 269.617 16.842C276.417 18.475 282.92 21.1687 288.887 24.824C295.613 28.9467 301.38 34.7117 312.91 46.242L317.09 50.4247C328.62 61.955 334.387 67.72 341.113 71.8427C347.08 75.498 353.583 78.1917 360.383 79.8247C368.057 81.6667 376.21 81.6667 392.517 81.6667H508.333C545.67 81.6667 564.34 81.6667 578.6 88.933C591.143 95.3243 601.343 105.523 607.733 118.067C615 132.328 615 150.997 615 188.333V375C615 412.337 615 431.007 607.733 445.267C601.343 457.81 591.143 468.01 578.6 474.4C564.34 481.667 545.67 481.667 508.333 481.667H121.667C84.3297 481.667 65.6613 481.667 51.4007 474.4C38.8563 468.01 28.6577 457.81 22.2663 445.267C15 431.007 15 412.337 15 375V121.667Z" stroke="black" stroke-width="30" stroke-linecap="round" stroke-linejoin="round"/>
</svg>
