<svg width="534" height="534" viewBox="0 0 534 534" fill="none" xmlns="http://www.w3.org/2000/svg">
<path d="M300 176.667H310V166.667V116.667C310 57.8562 357.856 10 416.667 10C475.477 10 523.333 57.8562 523.333 116.667C523.333 175.477 475.477 223.333 416.667 223.333H366.667H356.667V233.333V300V310H366.667H416.667C475.477 310 523.333 357.856 523.333 416.667C523.333 475.477 475.477 523.333 416.667 523.333C357.856 523.333 310 475.477 310 416.667V366.667V356.667H300H233.333H223.333V366.667V416.667C223.333 475.477 175.477 523.333 116.667 523.333C57.8562 523.333 10 475.477 10 416.667C10 357.856 57.8562 310 116.667 310H166.667H176.667V300V233.333V223.333H166.667H116.667C57.8562 223.333 10 175.477 10 116.667C10 57.8562 57.8562 10 116.667 10C175.477 10 223.333 57.8562 223.333 116.667V166.667V176.667H233.333H300ZM356.667 166.667V176.667H366.667H416.667C449.76 176.667 476.667 149.719 476.667 116.667C476.667 83.5395 449.752 56.6667 416.667 56.6667C383.581 56.6667 356.667 83.5395 356.667 116.667V166.667ZM176.667 366.667V356.667H166.667H116.667C83.5815 356.667 56.6667 383.539 56.6667 416.667C56.6667 449.719 83.5728 476.667 116.667 476.667C149.761 476.667 176.667 449.719 176.667 416.667V366.667ZM166.667 176.667H176.667V166.667V116.667C176.667 83.5395 149.752 56.6667 116.667 56.6667C83.5815 56.6667 56.6667 83.5395 56.6667 116.667C56.6667 149.719 83.5728 176.667 116.667 176.667H166.667ZM300 310H310V300V233.333V223.333H300H233.333H223.333V233.333V300V310H233.333H300ZM366.667 356.667H356.667V366.667V416.667C356.667 449.719 383.573 476.667 416.667 476.667C449.76 476.667 476.667 449.719 476.667 416.667C476.667 383.539 449.752 356.667 416.667 356.667H366.667Z" stroke="black" stroke-width="20"/>
</svg>
