<svg width="554" height="620" viewBox="0 0 554 620" fill="none" xmlns="http://www.w3.org/2000/svg">
<path d="M10 110H543.333M410 110L400.98 82.9357C392.237 56.7083 387.863 43.5947 379.757 33.8993C372.597 25.3377 363.403 18.7107 353.017 14.626C341.253 10 327.433 10 299.787 10H253.547C225.9 10 212.08 10 200.317 14.626C189.931 18.7107 180.736 25.3377 173.576 33.8993C165.468 43.5947 161.097 56.7083 152.355 82.9357L143.333 110M476.667 110V450C476.667 506.007 476.667 534.007 465.767 555.4C456.18 574.217 440.883 589.513 422.067 599.1C400.673 610 372.673 610 316.667 610H236.667C180.661 610 152.659 610 131.268 599.1C112.451 589.513 97.1533 574.217 87.566 555.4C76.6667 534.007 76.6667 506.007 76.6667 450V110M343.333 243.333V476.667M210 243.333V476.667" stroke="black" stroke-width="20" stroke-linecap="round" stroke-linejoin="round"/>
</svg>
